<?xml version="1.0" standalone="no"?>
<!DOCTYPE svg PUBLIC "-//W3C//DTD SVG 20010904//EN"
 "http://www.w3.org/TR/2001/REC-SVG-20010904/DTD/svg10.dtd">
<svg version="1.0" xmlns="http://www.w3.org/2000/svg"
 width="1080.000000pt" height="1080.000000pt" viewBox="0 0 1080.000000 1080.000000"
 preserveAspectRatio="xMidYMid meet">

<g transform="translate(0.000000,1080.000000) scale(0.100000,-0.100000)"
fill="#000000" stroke="none">
<path d="M5085 9460 c-811 -66 -1576 -372 -2220 -888 -147 -118 -471 -440
-587 -582 -168 -209 -320 -435 -441 -660 l-46 -86 192 -149 c106 -82 403 -313
660 -512 l468 -363 10 28 c191 524 526 953 978 1253 280 186 573 304 904 364
173 32 461 44 637 26 483 -47 906 -226 1259 -531 l83 -72 564 563 c310 310
564 567 564 570 0 11 -206 184 -326 274 -558 419 -1223 678 -1939 755 -135 15
-623 21 -760 10z"/>
<path d="M7318 6172 l-1898 -2 0 -780 0 -780 1105 0 c1048 0 1105 -1 1105 -18
0 -35 -72 -279 -111 -377 -133 -332 -369 -634 -652 -835 l-48 -34 28 -21 c15
-11 50 -38 78 -60 67 -54 177 -140 386 -299 57 -44 106 -82 109 -86 3 -3 74
-59 159 -124 84 -65 181 -140 215 -166 33 -27 114 -90 179 -140 137 -106 109
-108 236 20 207 210 360 409 519 674 71 118 83 144 60 130 -7 -4 -8 -3 -4 5 4
6 11 9 16 6 11 -7 127 233 193 401 197 499 297 1052 297 1639 0 194 -21 522
-40 635 -5 30 -12 81 -16 113 -3 32 -9 68 -12 80 l-7 22 -1897 -3z m950 -19
c-522 -2 -1374 -2 -1895 0 -522 1 -95 2 947 2 1042 0 1469 -1 948 -2z m959
-145 c-3 -7 -5 -2 -5 12 0 14 2 19 5 13 2 -7 2 -19 0 -25z m10 -60 c-3 -7 -5
-2 -5 12 0 14 2 19 5 13 2 -7 2 -19 0 -25z m0 -1275 c-3 -10 -5 -4 -5 12 0 17
2 24 5 18 2 -7 2 -21 0 -30z m-10 -55 c-3 -8 -6 -5 -6 6 -1 11 2 17 5 13 3 -3
4 -12 1 -19z m-646 -1681 c-10 -9 -11 -8 -5 6 3 10 9 15 12 12 3 -3 0 -11 -7
-18z"/>
</g>
</svg>
