<?xml version="1.0" standalone="no"?>
<!DOCTYPE svg PUBLIC "-//W3C//DTD SVG 20010904//EN"
 "http://www.w3.org/TR/2001/REC-SVG-20010904/DTD/svg10.dtd">
<svg version="1.0" xmlns="http://www.w3.org/2000/svg"
 width="512.000000pt" height="512.000000pt" viewBox="0 0 512.000000 512.000000"
 preserveAspectRatio="xMidYMid meet">

<g transform="translate(0.000000,512.000000) scale(0.100000,-0.100000)"
fill="#000000" stroke="none">
<path d="M2367 5110 c-323 -25 -644 -113 -933 -255 -156 -77 -355 -203 -478
-303 -139 -113 -316 -294 -413 -422 -10 -14 56 -84 416 -444 l428 -428 58 84
c73 104 236 267 335 335 168 115 372 197 567 229 118 19 378 14 488 -11 266
-59 479 -175 683 -370 l108 -104 423 423 422 422 -129 126 c-396 383 -874 620
-1408 697 -163 24 -414 33 -567 21z"/>
<path d="M2560 2545 l0 -595 611 0 611 0 -32 -57 c-127 -227 -341 -433 -574
-550 -168 -85 -391 -143 -548 -143 l-68 0 0 -599 0 -600 33 4 c17 2 84 6 148
9 268 12 597 93 859 212 824 375 1375 1115 1495 2009 25 180 22 490 -5 675
-12 80 -24 163 -28 185 l-7 40 -1248 3 -1247 2 0 -595z"/>
</g>
</svg>
